<?xml version="1.0" encoding="UTF-8"?>
<!-- Generator: visioncortex VTracer 0.6.4 -->
<svg version="1.1" xmlns="http://www.w3.org/2000/svg" width="1500" height="291">
<path d="M0 0 C76.89 0 153.78 0 233 0 C233 76.89 233 153.78 233 233 C156.11 233 79.22 233 0 233 C0 156.11 0 79.22 0 0 Z M39 47 C39.4 52.01 39.4 52.01 42.5 53.75 C43.33 54.16 44.15 54.58 45 55 C48.19 58.19 47.13 66.3 47.15 70.54 C47.15 71.61 47.15 71.61 47.16 72.71 C47.16 75.07 47.17 77.42 47.17 79.77 C47.17 81.42 47.17 83.07 47.18 84.72 C47.18 88.17 47.19 91.63 47.19 95.08 C47.19 99.48 47.2 103.88 47.22 108.29 C47.23 111.69 47.23 115.1 47.23 118.51 C47.23 120.13 47.23 121.75 47.24 123.37 C47.31 140.02 47.31 140.02 45 147 C41.88 149.06 41.88 149.06 39 150 C39 151.32 39 152.64 39 154 C52.86 154 66.72 154 81 154 C81 152.68 81 151.36 81 150 C80.43 149.75 79.87 149.49 79.29 149.23 C78.18 148.71 78.18 148.71 77.06 148.19 C76.33 147.85 75.6 147.51 74.85 147.17 C73 146 73 146 72 143 C71.85 140.13 71.74 137.27 71.68 134.39 C71.66 133.56 71.64 132.72 71.62 131.85 C71.56 129.17 71.5 126.49 71.44 123.81 C71.39 122 71.35 120.18 71.31 118.36 C71.2 113.91 71.1 109.45 71 105 C73.61 105.09 76.21 105.19 78.81 105.31 C79.55 105.34 80.29 105.36 81.05 105.38 C86.52 105.65 86.52 105.65 88.95 107.4 C90.28 109.43 90.98 111.37 91.69 113.69 C91.94 114.5 92.19 115.3 92.45 116.14 C92.63 116.75 92.81 117.37 93 118 C95.64 118 98.28 118 101 118 C101 106.78 101 95.56 101 84 C98.36 84 95.72 84 93 84 C92.81 84.63 92.61 85.25 92.41 85.9 C92.15 86.72 91.89 87.53 91.62 88.38 C91.24 89.59 91.24 89.59 90.85 90.84 C90 93 90 93 88 95 C82.46 96.38 76.69 96.56 71 97 C71 83.14 71 69.28 71 55 C95.17 56.27 95.17 56.27 99.25 60.12 C101.4 63.66 102.67 67.09 104 71 C107.63 71 111.26 71 115 71 C115 63.08 115 55.16 115 47 C89.92 47 64.84 47 39 47 Z M120 84 C120.33 85.65 120.66 87.3 121 89 C121.99 89.62 122.98 90.24 124 90.88 C127 93 127 93 127.68 96.16 C128 99.97 128.13 103.71 128.15 107.54 C128.15 108.61 128.15 108.61 128.16 109.71 C128.16 112.07 128.17 114.42 128.17 116.77 C128.17 118.42 128.17 120.07 128.18 121.72 C128.18 125.17 128.19 128.63 128.19 132.08 C128.19 136.48 128.2 140.88 128.22 145.29 C128.23 148.69 128.23 152.1 128.23 155.51 C128.23 157.13 128.23 158.75 128.24 160.37 C128.31 177.02 128.31 177.02 126 184 C122.88 186.06 122.88 186.06 120 187 C120 188.32 120 189.64 120 191 C144.42 191 168.84 191 194 191 C195.63 187.75 195.39 184.14 195.56 180.56 C195.6 179.75 195.65 178.95 195.69 178.11 C195.99 172.07 196.09 166.05 196 160 C192.7 160 189.4 160 186 160 C185.76 160.87 185.52 161.74 185.27 162.63 C181.66 175.02 181.66 175.02 178 179 C172.34 182.02 167.42 182.52 161.06 182.69 C160.19 182.72 159.31 182.76 158.41 182.79 C156.28 182.87 154.14 182.94 152 183 C152.08 171.6 152.18 160.19 152.29 148.79 C152.34 143.49 152.38 138.19 152.42 132.9 C152.46 127.79 152.51 122.68 152.56 117.57 C152.58 115.62 152.59 113.67 152.6 111.72 C152.62 108.99 152.65 106.26 152.68 103.53 C152.68 102.72 152.69 101.92 152.69 101.08 C152.79 93.96 152.79 93.96 155 91 C158.12 89.25 158.12 89.25 161 88 C161 86.68 161 85.36 161 84 C147.47 84 133.94 84 120 84 Z " fill="#0B406B" transform="translate(31,31)"/>
<path d="M0 0 C94.71 0 189.42 0 287 0 C287 94.71 287 189.42 287 287 C192.29 287 97.58 287 0 287 C0 192.29 0 97.58 0 0 Z M12 12 C12 98.79 12 185.58 12 275 C98.79 275 185.58 275 275 275 C275 188.21 275 101.42 275 12 C188.21 12 101.42 12 12 12 Z " fill="#0B406B" transform="translate(4,4)"/>
<path d="M0 0 C11.22 0 22.44 0 34 0 C48 32.67 62 65.33 76 98 C75.89 96.39 75.89 96.39 75.78 94.74 C75.07 83.39 74.87 72.11 74.9 60.74 C74.9 58.97 74.91 57.21 74.91 55.44 C74.91 50.85 74.92 46.27 74.93 41.68 C74.94 36.97 74.95 32.27 74.95 27.56 C74.96 18.37 74.98 9.19 75 0 C82.92 0 90.84 0 99 0 C99 43.89 99 87.78 99 133 C87.78 133 76.56 133 65 133 C61.52 125.45 58.06 117.95 54.86 110.29 C54.49 109.42 54.12 108.55 53.74 107.65 C52.96 105.79 52.18 103.93 51.4 102.07 C49.32 97.12 47.23 92.17 45.15 87.22 C44.51 85.71 44.51 85.71 43.86 84.16 C39.37 73.49 34.84 62.84 30.31 52.19 C29.57 50.44 28.82 48.69 28.08 46.94 C26.39 42.96 24.69 38.98 23 35 C23.07 36.15 23.14 37.3 23.22 38.48 C23.9 50.05 24.14 61.56 24.1 73.14 C24.1 74.88 24.09 76.62 24.09 78.37 C24.09 82.89 24.08 87.41 24.07 91.93 C24.06 96.57 24.05 101.21 24.05 105.85 C24.04 114.9 24.02 123.95 24 133 C16.08 133 8.16 133 0 133 C0 89.11 0 45.22 0 0 Z M21 30 C22 32 22 32 22 32 Z M77 101 C78 103 78 103 78 103 Z " fill="#0C416A" transform="translate(1083,80)"/>
<path d="M0 0 C10.89 0 21.78 0 33 0 C38.37 11.33 43.4 22.78 48.31 34.31 C49.09 36.13 49.86 37.94 50.64 39.76 C52.26 43.55 53.88 47.34 55.49 51.13 C59.29 60.03 63.1 68.91 66.91 77.8 C68.84 82.3 70.77 86.79 72.7 91.29 C73.34 92.8 73.99 94.3 74.63 95.81 C75.08 96.86 75.54 97.92 76 99 C75.89 97.83 75.89 97.83 75.78 96.64 C74.92 86.09 74.87 75.61 74.9 65.04 C74.9 63.15 74.91 61.27 74.91 59.38 C74.91 54.47 74.92 49.55 74.93 44.64 C74.94 39.6 74.95 34.57 74.95 29.53 C74.96 19.69 74.98 9.84 75 0 C82.92 0 90.84 0 99 0 C99 43.89 99 87.78 99 133 C87.45 133 75.9 133 64 133 C62.25 128.81 60.49 124.63 58.69 120.31 C52.92 106.55 47.12 92.81 41.31 79.06 C34.83 63.73 28.38 48.38 22 33 C22.06 33.68 22.12 34.37 22.18 35.07 C23.93 55.72 24.26 76.2 24.14 96.9 C24.12 101 24.11 105.09 24.1 109.18 C24.08 117.12 24.04 125.06 24 133 C16.08 133 8.16 133 0 133 C0 89.11 0 45.22 0 0 Z " fill="#0C416A" transform="translate(964,80)"/>
<path d="M0 0 C13.43 9.88 20.59 24.21 23.41 40.37 C26.8 63.05 25.46 87.15 13 107 C3.61 119.45 -8.52 127.48 -24 130 C-40.01 131.5 -55.72 129.74 -69 120 C-69.69 119.5 -70.39 119 -71.11 118.48 C-84.57 107.77 -90.26 90.87 -92.34 74.33 C-94.69 51.78 -91.95 28.62 -78.41 9.79 C-60.11 -12.68 -23.48 -15.69 0 0 Z M-56 21 C-67.07 37.21 -67.2 60.98 -63.75 79.69 C-61.44 90.25 -58.45 100.14 -48.93 106.35 C-41.59 110.01 -32.82 111.24 -24.9 108.78 C-16.78 105.44 -11.62 100.44 -7.81 92.53 C-0.22 73.54 -0.37 47.29 -7.94 28.33 C-11.35 20.82 -16.52 15.06 -24.31 12.12 C-36.27 8.72 -47.87 11.41 -56 21 Z " fill="#0C416A" transform="translate(926,86)"/>
<path d="M0 0 C25.74 0 51.48 0 78 0 C77 14 77 14 76 19 C59.83 19 43.66 19 27 19 C27 30.88 27 42.76 27 55 C40.86 55 54.72 55 69 55 C69 61.6 69 68.2 69 75 C55.14 75 41.28 75 27 75 C27 87.54 27 100.08 27 113 C44.16 113 61.32 113 79 113 C79 119.6 79 126.2 79 133 C52.93 133 26.86 133 0 133 C0 89.11 0 45.22 0 0 Z " fill="#0C416A" transform="translate(1202,80)"/>
<path d="M0 0 C1.84 2.22 1.84 2.22 3 4 C2.31 4.75 1.63 5.5 0.92 6.27 C0.01 7.26 -0.9 8.26 -1.81 9.25 C-2.26 9.74 -2.72 10.23 -3.18 10.74 C-5.61 13.4 -7.9 16.07 -10 19 C-12.11 17.95 -14.21 16.89 -16.3 15.78 C-25.42 11.02 -33.56 8.53 -43.88 11 C-51.56 13.52 -57.06 18.68 -60.88 25.75 C-65.39 36.29 -66.53 46.42 -66.44 57.81 C-66.43 58.47 -66.43 59.13 -66.43 59.81 C-66.33 74.72 -64.69 87.33 -54.41 98.77 C-49.08 103.93 -42.34 106.02 -35 106.38 C-26.06 105.93 -18.94 102.08 -11.47 97.43 C-9 96 -9 96 -7 96 C-5.01 98.21 -3.15 100.42 -1.31 102.75 C-0.79 103.38 -0.26 104.02 0.28 104.67 C0.77 105.29 1.26 105.91 1.76 106.55 C2.22 107.11 2.67 107.68 3.14 108.26 C4 110 4 110 3.76 112.11 C1.18 118.53 -9.14 122.25 -15.07 124.96 C-30.68 130.51 -48.83 129.67 -63.83 122.68 C-79.28 113.99 -88.16 100.43 -92.97 83.6 C-98.29 60.05 -96.8 33.85 -84 13 C-75.92 1.09 -64.57 -7.01 -50.51 -10.49 C-32.24 -13.14 -15.24 -11.03 0 0 Z " fill="#0C416A" transform="translate(1380,88)"/>
<path d="M0 0 C1.84 2.22 1.84 2.22 3 4 C2.31 4.75 1.63 5.5 0.92 6.27 C0.01 7.26 -0.9 8.26 -1.81 9.25 C-2.26 9.74 -2.72 10.23 -3.18 10.74 C-5.61 13.4 -7.9 16.07 -10 19 C-12.11 17.95 -14.21 16.89 -16.3 15.78 C-25.39 11.03 -33.52 8.56 -43.81 10.94 C-51.22 13.34 -57.64 18.94 -61.44 25.75 C-68.94 43.76 -69.23 67.69 -62.88 86.12 C-59.33 94.29 -54.11 100.81 -45.8 104.36 C-37.34 107.37 -29.18 106.35 -21 103 C-18.33 101.53 -15.77 99.97 -13.23 98.3 C-11.09 97.05 -9.39 96.54 -7 96 C-5.13 98.24 -3.28 100.49 -1.44 102.75 C-0.9 103.38 -0.37 104.02 0.18 104.67 C0.68 105.29 1.18 105.91 1.69 106.55 C2.16 107.11 2.62 107.68 3.1 108.26 C4 110 4 110 3.76 112.11 C1.17 118.53 -9.13 122.25 -15.07 124.96 C-30.68 130.51 -48.83 129.67 -63.83 122.68 C-79.33 113.96 -87.8 100.57 -92.97 83.86 C-98.35 61.97 -96.83 35.93 -86 16 C-77.91 3.2 -66.8 -6.42 -51.79 -10.15 C-33.55 -13.88 -15.18 -10.99 0 0 Z " fill="#0C416A" transform="translate(833,88)"/>
<path d="M0 0 C32.67 0 65.34 0 99 0 C99 8 99 8 97 21 C85.45 21 73.9 21 62 21 C62 57.96 62 94.92 62 133 C53.42 133 44.84 133 36 133 C36 96.04 36 59.08 36 21 C24.12 21 12.24 21 0 21 C0 14.07 0 7.14 0 0 Z " fill="#0C416A" transform="translate(1386,80)"/>
<path d="M0 0 C58.69 0 58.69 0 70 11 C77.83 21.41 78.27 33.24 76.64 45.75 C74.65 53.29 68.78 59.55 62.36 63.71 C58.25 65.84 54.54 67.14 50 68 C57.04 80.48 64.25 92.85 71.66 105.12 C84 125.56 84 125.56 84 127 C79.05 127 74.1 127 69 127 C68.09 125.42 67.18 123.85 66.25 122.23 C65.65 121.19 65.05 120.15 64.43 119.07 C63.09 116.75 61.75 114.44 60.42 112.12 C57.21 106.56 54.01 101.01 50.79 95.47 C49.75 93.69 48.71 91.9 47.68 90.12 C46.37 87.87 45.06 85.62 43.75 83.37 C42.86 81.83 42.86 81.83 41.95 80.26 C41.43 79.36 40.9 78.47 40.37 77.54 C39 75 39 75 37 70 C29.08 70 21.16 70 13 70 C13 88.81 13 107.62 13 127 C8.71 127 4.42 127 0 127 C0 85.09 0 43.18 0 0 Z M13 10 C13 26.5 13 43 13 60 C17.72 60.08 22.45 60.16 27.31 60.25 C29.51 60.3 29.51 60.3 31.76 60.36 C41.12 60.44 49.65 59.41 57.44 53.81 C63.84 46.79 64.67 39.9 64.38 30.53 C63.69 24.09 61.47 20.16 56.88 15.69 C48.13 9.08 37.87 9.62 27.38 9.81 C22.63 9.87 17.89 9.94 13 10 Z " fill="#0C416A" transform="translate(455,86)"/>
<path d="M0 0 C0.95 -0.02 1.89 -0.04 2.87 -0.06 C15.98 -0.13 26.69 4.56 36.38 13.25 C36.2 15.63 35.68 16.95 33.97 18.63 C32.47 19.87 30.92 21.06 29.38 22.25 C28.8 21.79 28.23 21.33 27.64 20.86 C17.71 13.34 6.87 9.78 -5.62 11.25 C-10.99 12.45 -17.49 14.21 -20.78 18.89 C-24.42 25.05 -25.4 30.3 -24.3 37.3 C-22.45 44.01 -17.41 46.93 -11.62 50.25 C-7.11 52.19 -2.49 53.73 2.19 55.25 C16.15 59.82 29.61 64.37 37.68 77.35 C42.04 86.12 41.91 97.59 39.39 106.9 C35.21 117.37 28.72 123.75 18.57 128.59 C4.5 133.74 -12.86 133.04 -26.62 127.25 C-32.55 124.3 -37.7 120.66 -42.62 116.25 C-41.27 111.83 -39.36 109.91 -35.62 107.25 C-35.04 107.7 -34.46 108.14 -33.86 108.61 C-22.41 117.05 -10.91 121.3 3.38 120.25 C10.51 118.99 17 116.17 22.38 111.25 C27.44 103.86 28.5 95.75 26.98 87 C25.19 81.12 21.49 77.49 16.38 74.25 C9.96 71.19 3.27 68.91 -3.43 66.57 C-16.97 61.79 -29.4 57.01 -36.5 43.75 C-38.95 36.23 -39.03 26.67 -36.06 19.31 C-30.83 9.68 -23.34 3.85 -12.76 0.69 C-8.56 -0.18 -4.27 0.02 0 0 Z " fill="#0C416A" transform="translate(583.625,83.75)"/>
<path d="M0 0 C21.12 0 42.24 0 64 0 C63.67 3.3 63.34 6.6 63 10 C46.17 10 29.34 10 12 10 C12 25.84 12 41.68 12 58 C26.19 58 40.38 58 55 58 C55 61.3 55 64.6 55 68 C40.81 68 26.62 68 12 68 C12 87.47 12 106.94 12 127 C8.04 127 4.08 127 0 127 C0 85.09 0 43.18 0 0 Z " fill="#0C416A" transform="translate(337,86)"/>
<path d="M0 0 C29.04 0 58.08 0 88 0 C87.67 3.3 87.34 6.6 87 10 C74.79 10 62.58 10 50 10 C50 48.61 50 87.22 50 127 C46.04 127 42.08 127 38 127 C38 88.39 38 49.78 38 10 C25.46 10 12.92 10 0 10 C0 6.7 0 3.4 0 0 Z " fill="#0C416A" transform="translate(636,86)"/>
<path d="M0 0 C3.96 0 7.92 0 12 0 C12 41.91 12 83.82 12 127 C8.04 127 4.08 127 0 127 C0 85.09 0 43.18 0 0 Z " fill="#0C416A" transform="translate(414,86)"/>
</svg>
